<svg xmlns="http://www.w3.org/2000/svg" xmlns:xlink="http://www.w3.org/1999/xlink" width="236.586" height="236.586" viewBox="0 0 236.586 236.586">
  <defs>
    <style>
      .cls-1 {
        fill: none;
      }

      .cls-2 {
        clip-path: url(#clip-path);
      }

      .cls-3 {
        fill: #787878;
      }

      .cls-4 {
        fill: #0b212e;
      }

      .cls-5 {
        fill: #fef7ed;
      }

      .cls-6 {
        fill: #f1947d;
      }

      .cls-7 {
        fill: #dd6753;
      }

      .cls-8 {
        fill: #3d3535;
      }
    </style>
    <clipPath id="clip-path">
      <circle id="Ellipse_12" data-name="Ellipse 12" class="cls-1" cx="118.293" cy="118.293" r="118.293"/>
    </clipPath>
  </defs>
  <g id="man_-_transparent" data-name="man - transparent" transform="translate(-1641.603 -161.312)">
    <path id="Path_129" data-name="Path 129" class="cls-1" d="M118.293,0A118.293,118.293,0,1,1,0,118.293,118.293,118.293,0,0,1,118.293,0Z" transform="translate(1641.603 161.312)"/>
    <g id="Group_69" data-name="Group 69" transform="translate(1641.603 161.312)">
      <g id="Group_68" data-name="Group 68" class="cls-2" transform="translate(0 0)">
        <g id="Group_67" data-name="Group 67" transform="translate(31.05 18.905)">
          <path id="Path_83" data-name="Path 83" class="cls-3" d="M1895.1,603.71H1721.2q2.263-26.282,4.522-52.563c.6-6.919,1.224-13.969,4.016-20.385s8.159-12.22,15.257-13.933c6.386-1.543,58.074-16.575,63.156-18.054,5.087,1.479,56.772,16.511,63.158,18.054,7.1,1.712,12.46,7.517,15.254,13.933s3.422,13.465,4.016,20.385Q1892.837,577.429,1895.1,603.71Z" transform="translate(-1721.195 -386.031)"/>
          <path id="Path_84" data-name="Path 84" class="cls-4" d="M1791.949,695.971a111.154,111.154,0,0,0-2.517-38.409q-.876-3.521-2-6.91-.188,5.4-.375,10.794c-.048,1.347-.092,2.692-.14,4.037q-.029,15.244-.061,30.488Z" transform="translate(-1761.243 -478.658)"/>
          <path id="Path_85" data-name="Path 85" class="cls-4" d="M2085.433,695.971a111.159,111.159,0,0,1,2.517-38.409q.875-3.521,2-6.91.189,5.4.374,10.794.071,2.021.14,4.037.031,15.244.061,30.488Z" transform="translate(-1942.945 -478.658)"/>
          <path id="Path_86" data-name="Path 86" class="cls-5" d="M1932.139,511.386l-2.958-.856h-31.257c-1.2.353-2.8.7-4.069,1.078-.34,7.708-1.154,55.21,18.89,99.271h1.314C1934.195,566.573,1932.48,518.7,1932.139,511.386Z" transform="translate(-1826.428 -393.199)"/>
          <g id="Group_58" data-name="Group 58" transform="translate(67.426 75.425)">
            <path id="Path_87" data-name="Path 87" class="cls-6" d="M1932.274,444.488q-1.061-17.246-2.123-34.492l-16.947-6.673a.147.147,0,0,0,0,.018l-16.934,6.668-2.2,35.8a18.265,18.265,0,0,0,18.269,19.388h.51A19.5,19.5,0,0,0,1932.274,444.488Z" transform="translate(-1894.031 -403.24)"/>
            <path id="Path_88" data-name="Path 88" class="cls-7" d="M1934.652,438.29q-.877-14.251-1.754-28.5l-16.957-6.677a.14.14,0,0,1,0,.018L1899,409.8q-.234,3.8-.467,7.6A49.156,49.156,0,0,0,1934.652,438.29Z" transform="translate(-1896.774 -403.111)"/>
          </g>
          <g id="Group_64" data-name="Group 64" transform="translate(50.667)">
            <g id="Group_59" data-name="Group 59" transform="translate(0.935)">
              <path id="Path_89" data-name="Path 89" class="cls-8" d="M1914.547,222.058c-4.2-4.065-9.967-5.99-15.527-7.793-6.179-2-12.442-4.023-18.926-4.426s-13.324.979-18.326,5.125c-5.977,4.954-8.467,13.16-8.292,20.922s2.664,15.261,5.127,22.623l57.932,4.324c2.274-6.831,4.57-13.773,4.863-20.966S1919.719,227.067,1914.547,222.058Z" transform="translate(-1853.468 -209.773)"/>
            </g>
            <path id="Path_90" data-name="Path 90" class="cls-8" d="M1925.145,263.166c-.6-7.074-3.645-14.249-9.085-19.022-6.052-5.309-14.48-6.1-22.219-6.208a43.646,43.646,0,0,0-18.521,3.416c-8.489,3.826-12.271,12.994-13.013,21.813-.645,7.661.811,15.325,2.26,22.875,0,0,29.124,1.918,29.124,1.922l.035,0s.035,0,.034,0l29.124-1.918C1924.334,278.492,1925.79,270.827,1925.145,263.166Z" transform="translate(-1857.828 -226.946)"/>
            <path id="Path_91" data-name="Path 91" class="cls-6" d="M1925.549,289.465c-2.925-9.219-9.055-16.006-15.813-17.512a12.51,12.51,0,0,0-2.525-.3c-2.247-.036-10.953-.036-13.2,0a12.486,12.486,0,0,0-2.525.3c-6.758,1.506-12.886,8.293-15.813,17.512-2.475,7.8-2.683,16.825-1.851,25.364.706,7.254,1.758,10.225,4.882,15.879a40.554,40.554,0,0,0,13.017,14.2c2.223,1.482,4.62,3.059,7.081,3.645a4.39,4.39,0,0,0,.82.185,7.173,7.173,0,0,0,.987.052,6.977,6.977,0,0,0,.988-.052,4.283,4.283,0,0,0,.82-.185c2.46-.586,4.859-2.162,7.082-3.645a40.569,40.569,0,0,0,13.018-14.2c3.125-5.654,4.175-8.625,4.882-15.879C1928.232,306.289,1928.025,297.263,1925.549,289.465Z" transform="translate(-1864.678 -247.495)"/>
            <g id="Group_60" data-name="Group 60" transform="translate(0 49.623)">
              <path id="Path_92" data-name="Path 92" class="cls-6" d="M1861.329,342.43a5.026,5.026,0,0,0-1.8-3.7,10.582,10.582,0,0,0-2.7-1.488,3.9,3.9,0,0,0-4.577,1.253c-1.284,1.718-1.372,4.481-.969,6.847a23,23,0,0,0,6.536,12.268,2.12,2.12,0,0,0,1.915.674c1.7-.35,1.937-2.722,1.948-4.662Q1861.714,348.02,1861.329,342.43Z" transform="translate(-1851.071 -336.974)"/>
            </g>
            <g id="Group_61" data-name="Group 61" transform="translate(61.221 49.623)">
              <path id="Path_93" data-name="Path 93" class="cls-6" d="M2008.357,342.43a5.02,5.02,0,0,1,1.8-3.7,10.561,10.561,0,0,1,2.7-1.488,3.9,3.9,0,0,1,4.577,1.253c1.283,1.718,1.373,4.481.969,6.847a23.009,23.009,0,0,1-6.536,12.268,2.119,2.119,0,0,1-1.915.674c-1.7-.35-1.937-2.722-1.948-4.662Q2007.972,348.02,2008.357,342.43Z" transform="translate(-2008 -336.974)"/>
            </g>
            <g id="Group_62" data-name="Group 62" transform="translate(35.258 19.094)">
              <path id="Path_94" data-name="Path 94" class="cls-8" d="M1941.45,260.289c2.247,4.776,6.332,8.5,10.887,11.167a73.188,73.188,0,0,0,14.621,6q-.5-9.367-.993-18.735Z" transform="translate(-1941.45 -258.717)"/>
            </g>
            <g id="Group_63" data-name="Group 63" transform="translate(17.873 21.227)">
              <path id="Path_95" data-name="Path 95" class="cls-8" d="M1915.609,264.185l-18.724,2.48a63.062,63.062,0,0,0,25.945,9.43A28.485,28.485,0,0,1,1915.609,264.185Z" transform="translate(-1896.885 -264.185)"/>
            </g>
          </g>
          <g id="Group_65" data-name="Group 65" transform="translate(46.574 121.466)">
            <path id="Path_96" data-name="Path 96" class="cls-4" d="M1842.3,559.759l38.43,57.585h-1.412l-38.739-58.053,10.873-5.271-10.72-5.867,8.762-26.629c.453-.133.905-.265,1.358-.394l-8.7,26.462L1854,554.083Z" transform="translate(-1840.58 -521.13)"/>
          </g>
          <g id="Group_66" data-name="Group 66" transform="translate(87.181 121.466)">
            <path id="Path_97" data-name="Path 97" class="cls-4" d="M1984.817,559.291l-38.739,58.053h-1.408l38.426-57.585-11.7-5.676,11.856-6.492-8.708-26.462c.453.129.905.257,1.362.394h0l8.758,26.629-10.72,5.867Z" transform="translate(-1944.67 -521.13)"/>
          </g>
        </g>
      </g>
    </g>
  </g>
</svg>
