<svg xmlns="http://www.w3.org/2000/svg" xmlns:xlink="http://www.w3.org/1999/xlink" width="236.586" height="236.586" viewBox="0 0 236.586 236.586">
  <defs>
    <style>
      .cls-1 {
        fill: none;
      }

      .cls-2 {
        clip-path: url(#clip-path);
      }

      .cls-3 {
        fill: #3d3535;
      }

      .cls-4 {
        fill: #307596;
      }

      .cls-5 {
        fill: #0b212e;
      }

      .cls-6 {
        fill: #fef7ed;
      }

      .cls-7 {
        fill: #f1947d;
      }

      .cls-8 {
        fill: #dd6753;
      }

      .cls-9 {
        fill: #282424;
      }
    </style>
    <clipPath id="clip-path">
      <circle id="Ellipse_16" data-name="Ellipse 16" class="cls-1" cx="118.293" cy="118.293" r="118.293"/>
    </clipPath>
  </defs>
  <g id="woman_-_transparent" data-name="woman - transparent" transform="translate(-896.658 -1592.529)">
    <path id="Path_130" data-name="Path 130" class="cls-1" d="M118.293,0A118.293,118.293,0,1,1,0,118.293,118.293,118.293,0,0,1,118.293,0Z" transform="translate(896.658 1592.529)"/>
    <g id="Group_89" data-name="Group 89" transform="translate(896.658 1592.529)">
      <g id="Group_88" data-name="Group 88" class="cls-2" transform="translate(0 0)">
        <g id="Group_87" data-name="Group 87" transform="translate(31.318 29.891)">
          <path id="Path_113" data-name="Path 113" class="cls-3" d="M1212.195,1718.627s24.145,92.159-5.014,124.641c1.626,1.028-36.18-21.654-36.179-21.654Q1191.6,1770.121,1212.195,1718.627Z" transform="translate(-1095.293 -1699.325)"/>
          <path id="Path_114" data-name="Path 114" class="cls-4" d="M1150.839,2034.929h-173.9q2.265-26.283,4.522-52.563c.6-6.919,1.223-13.969,4.016-20.385s8.16-12.22,15.257-13.933c6.386-1.542,58.073-16.575,63.155-18.054,5.086,1.479,56.772,16.511,63.158,18.054,7.1,1.712,12.459,7.517,15.254,13.933s3.422,13.465,4.016,20.385Q1148.577,2008.647,1150.839,2034.929Z" transform="translate(-976.935 -1828.234)"/>
          <path id="Path_115" data-name="Path 115" class="cls-5" d="M1047.69,2128.129a111.148,111.148,0,0,0-2.517-38.409q-.877-3.521-2-6.91-.188,5.4-.375,10.794-.07,2.022-.14,4.037-.029,15.244-.061,30.489Z" transform="translate(-1016.983 -1921.434)"/>
          <path id="Path_116" data-name="Path 116" class="cls-5" d="M1341.173,2128.129a111.136,111.136,0,0,1,2.517-38.409q.876-3.521,2-6.91.185,5.4.374,10.794.071,2.022.141,4.037.029,15.244.061,30.489Z" transform="translate(-1198.685 -1921.434)"/>
          <path id="Path_117" data-name="Path 117" class="cls-6" d="M1129.779,1937.911v97.017h54.49v-97.063c-12.929-3.731-24.856-7.2-27.167-7.872C1154.784,1930.669,1142.768,1934.163,1129.779,1937.911Z" transform="translate(-1070.152 -1828.234)"/>
          <path id="Path_118" data-name="Path 118" class="cls-7" d="M1156.5,1930.169l-.984.286-.82.239-1.626.472-.321.093-.388.113-.02.006-2.149.624-.161.047-.472.137-1.214.352-.713.207-.439.128-2.6.754-.17.049-.868.252-.134.039c-4.114,1.192-8.809,2.551-13.642,3.945v7.381c5.806,7.146,15.837,11.872,27.245,11.871s21.439-4.724,27.245-11.869v-7.428l-.249-.072-.01,0-2.445-.706-.485-.14-.712-.205-.735-.213-.441-.127-.509-.147-3.185-.922-1.341-.388-2.446-.708-.909-.263-.262-.076-1.572-.456-1.586-.46-.63-.183-2.007-.583c-.3-.086-.6-.173-.886-.257l-2.052-.6-.521-.151-1.845-.536-.885-.257-.276-.08-.616-.179-.561-.163-.371.108Z" transform="translate(-1070.152 -1828.234)"/>
          <g id="Group_82" data-name="Group 82" transform="translate(67.45 64.44)">
            <path id="Path_119" data-name="Path 119" class="cls-7" d="M1188.127,1876.587q-1.094-17.791-2.19-35.581l-16.957-6.677a.043.043,0,0,1,0,.018l-16.944,6.672q-1.095,17.782-2.189,35.568c-.2,3.208,1.5,6.094,3.961,8.558a21.522,21.522,0,0,0,30.4-.027C1186.645,1882.659,1188.326,1879.782,1188.127,1876.587Z" transform="translate(-1149.831 -1834.329)"/>
            <path id="Path_120" data-name="Path 120" class="cls-8" d="M1190.407,1869.508q-.877-14.251-1.754-28.5-8.476-3.339-16.957-6.677a.043.043,0,0,1,0,.018l-16.944,6.672q-.234,3.8-.468,7.6A49.153,49.153,0,0,0,1190.407,1869.508Z" transform="translate(-1152.547 -1834.329)"/>
          </g>
          <path id="Path_121" data-name="Path 121" class="cls-3" d="M1180.885,1694.385c-.6-7.075-3.644-14.248-9.085-19.022-6.051-5.308-14.48-6.1-22.219-6.208a43.646,43.646,0,0,0-18.521,3.416c-8.49,3.827-12.27,12.995-13.013,21.814-.644,7.66.812,15.324,2.26,22.875,0,0,29.124,1.919,29.124,1.923l.035,0s.035,0,.034,0l29.124-1.918C1180.075,1709.71,1181.529,1702.044,1180.885,1694.385Z" transform="translate(-1062.901 -1669.149)"/>
          <path id="Path_122" data-name="Path 122" class="cls-7" d="M1181.288,1720.683c-2.927-9.219-9.055-16.006-15.813-17.512a12.52,12.52,0,0,0-2.525-.3c-2.247-.037-10.953-.037-13.2,0a12.49,12.49,0,0,0-2.525.3c-6.759,1.506-12.885,8.292-15.813,17.512-2.477,7.8-2.683,16.824-1.851,25.364.708,7.253,1.758,10.226,4.882,15.879a40.542,40.542,0,0,0,13.017,14.2c2.222,1.482,4.621,3.06,7.082,3.645a4.446,4.446,0,0,0,.82.185,9.361,9.361,0,0,0,1.975,0,4.305,4.305,0,0,0,.82-.185c2.461-.586,4.858-2.162,7.082-3.645a40.572,40.572,0,0,0,13.018-14.2c3.124-5.653,4.175-8.625,4.882-15.879C1183.971,1737.508,1183.764,1728.48,1181.288,1720.683Z" transform="translate(-1069.75 -1689.698)"/>
          <g id="Group_83" data-name="Group 83" transform="translate(50.667 38.638)">
            <path id="Path_123" data-name="Path 123" class="cls-7" d="M1117.068,1773.648a5.028,5.028,0,0,0-1.8-3.7,10.538,10.538,0,0,0-2.7-1.488,3.9,3.9,0,0,0-4.577,1.253c-1.284,1.717-1.372,4.482-.969,6.847a23,23,0,0,0,6.536,12.269,2.121,2.121,0,0,0,1.915.675c1.7-.351,1.937-2.723,1.948-4.662C1117.444,1781.108,1117.326,1777.369,1117.068,1773.648Z" transform="translate(-1106.81 -1768.192)"/>
          </g>
          <g id="Group_84" data-name="Group 84" transform="translate(111.887 38.638)">
            <path id="Path_124" data-name="Path 124" class="cls-7" d="M1264.1,1773.648a5.022,5.022,0,0,1,1.8-3.7,10.533,10.533,0,0,1,2.7-1.488,3.9,3.9,0,0,1,4.577,1.253c1.282,1.717,1.372,4.482.969,6.847a22.994,22.994,0,0,1-6.536,12.269,2.12,2.12,0,0,1-1.915.675c-1.7-.351-1.937-2.723-1.948-4.662C1263.721,1781.108,1263.839,1777.369,1264.1,1773.648Z" transform="translate(-1263.74 -1768.192)"/>
          </g>
          <path id="Path_125" data-name="Path 125" class="cls-3" d="M1115.316,1691.692h0c-3.795-6-19.519-13.3-28.189-16.971a20.093,20.093,0,0,0-15.152-.272,32.726,32.726,0,0,0-18.354,17.891c-3.174,7.9-3.1,16.79-6.113,24.75-1.7,4.484-4.335,8.552-6.281,12.934s-3.193,9.349-1.906,13.968c1.03,3.7,3.618,6.938,3.944,10.761.437,5.144-3.35,9.7-7.5,12.77s-8.975,5.371-12.315,9.31a18.288,18.288,0,0,0-4.169,13.662c.005.049.01.1.016.146a12.848,12.848,0,0,0,15.239,11.012,119.288,119.288,0,0,0,20.162-5.9c8.74-3.432,16.816-9.626,20.407-18.3,2.619-6.333,2.669-13.438,1.933-20.252-1.023-9.483-3.473-18.753-4.982-28.171s-2.051-19.226.693-28.361a34.766,34.766,0,0,1,2.558-5.715,13.088,13.088,0,0,1,11.085-6.948c9.7-.324,25.712,2.609,29.81,24.439a33.9,33.9,0,0,0,1.569-5.307A19.793,19.793,0,0,0,1115.316,1691.692Z" transform="translate(-1002.694 -1671.557)"/>
          <g id="Group_85" data-name="Group 85" transform="translate(62.963 17.316)">
            <path id="Path_126" data-name="Path 126" class="cls-9" d="M1147.855,1713.647a24.4,24.4,0,0,0-7.426,10.84,38.3,38.3,0,0,0-2.095,13.585,110.223,110.223,0,0,0,2.056,16.972,100.3,100.3,0,0,1,1.86,16.162,35.563,35.563,0,0,1-2.711,14.866q-.39.868-.84,1.707c-.284.531.524,1,.808.472a33.708,33.708,0,0,0,3.641-14.609,77.988,77.988,0,0,0-1.34-15.813c-.929-5.616-2.057-11.219-2.423-16.91a41.421,41.421,0,0,1,1.3-14.206,24.914,24.914,0,0,1,6.567-11.309c.405-.382.826-.746,1.26-1.1.469-.378-.2-1.036-.662-.661Z" transform="translate(-1138.329 -1713.535)"/>
          </g>
          <g id="Group_86" data-name="Group 86" transform="translate(61.76 9.666)">
            <path id="Path_127" data-name="Path 127" class="cls-9" d="M1148.825,1694a40.3,40.3,0,0,0-13.556,18.295.472.472,0,0,0,.327.576.479.479,0,0,0,.576-.327,39.175,39.175,0,0,1,3.909-7.8,39.612,39.612,0,0,1,5.5-6.725,38.481,38.481,0,0,1,3.717-3.214.482.482,0,0,0,.168-.64.471.471,0,0,0-.64-.168Z" transform="translate(-1135.247 -1693.926)"/>
          </g>
        </g>
      </g>
    </g>
  </g>
</svg>
