<svg xmlns="http://www.w3.org/2000/svg" width="211.467" height="61.74" viewBox="0 0 211.467 61.74">
  <g id="Group_14" data-name="Group 14" transform="translate(-281 -506.865)">
    <path id="Path_9" data-name="Path 9" d="M-21.8-13.953A4.777,4.777,0,0,0-22-15.1a2.862,2.862,0,0,0-.525-.988,2.8,2.8,0,0,0-.9-.71,2.918,2.918,0,0,0-1.343-.278,3.09,3.09,0,0,0-1.328.263,2.745,2.745,0,0,0-.926.695,3.115,3.115,0,0,0-.571,1,6.584,6.584,0,0,0-.293,1.158Zm-10.809,1.76a9.924,9.924,0,0,1,.664-3.783,8.1,8.1,0,0,1,1.745-2.7,7.257,7.257,0,0,1,2.486-1.637,7.782,7.782,0,0,1,2.887-.556,7.177,7.177,0,0,1,5.466,2.115q2.007,2.116,2.007,6.223,0,.4-.031.88t-.062.85H-27.885a3.056,3.056,0,0,0,1.328,2.254,5.338,5.338,0,0,0,3.15.834,13.3,13.3,0,0,0,2.486-.232,9.364,9.364,0,0,0,1.992-.571l.618,3.737a6.351,6.351,0,0,1-.988.371,12.9,12.9,0,0,1-1.375.324q-.757.139-1.621.232a16.172,16.172,0,0,1-1.73.093,10.232,10.232,0,0,1-3.814-.649,7.428,7.428,0,0,1-2.687-1.776A7.047,7.047,0,0,1-32.1-8.857a10.581,10.581,0,0,1-.509-3.335" transform="translate(383.7 546.446)" fill="#6196d4"/>
    <path id="Path_10" data-name="Path 10" d="M-21.552-45.035q-5.219,0-7.952-2.9t-2.733-8.246a12.682,12.682,0,0,1,.834-4.74,10.2,10.2,0,0,1,2.285-3.52,9.555,9.555,0,0,1,3.459-2.177,12.481,12.481,0,0,1,4.354-.741,13.98,13.98,0,0,1,2.471.2,16.1,16.1,0,0,1,1.946.463,9.636,9.636,0,0,1,1.389.541q.556.278.8.432l-1.39,3.891a11.686,11.686,0,0,0-2.3-.9,10.973,10.973,0,0,0-2.98-.371,6.579,6.579,0,0,0-2.177.371,4.923,4.923,0,0,0-1.884,1.189,5.914,5.914,0,0,0-1.313,2.115,8.874,8.874,0,0,0-.494,3.15,11.227,11.227,0,0,0,.324,2.764A5.858,5.858,0,0,0-25.86-51.3a5.032,5.032,0,0,0,1.9,1.467,6.759,6.759,0,0,0,2.841.54,12.979,12.979,0,0,0,1.884-.123,13.932,13.932,0,0,0,1.482-.293,7.757,7.757,0,0,0,1.143-.386q.494-.216.9-.4l1.328,3.86A11.263,11.263,0,0,1-17.26-45.53a16.749,16.749,0,0,1-4.292.494" transform="translate(401.517 587.72)" fill="#6196d4"/>
    <path id="Path_11" data-name="Path 11" d="M-22.736-17.192a5.783,5.783,0,0,0-.85-3.351,2.777,2.777,0,0,0-2.424-1.22,2.815,2.815,0,0,0-2.439,1.22,5.7,5.7,0,0,0-.865,3.351,5.85,5.85,0,0,0,.865,3.381,2.793,2.793,0,0,0,2.439,1.251,2.756,2.756,0,0,0,2.424-1.251,5.934,5.934,0,0,0,.85-3.381m4.694,0a10.569,10.569,0,0,1-.556,3.505A7.611,7.611,0,0,1-20.2-10.969a7.223,7.223,0,0,1-2.517,1.745,8.4,8.4,0,0,1-3.289.618,8.316,8.316,0,0,1-3.258-.618,7.217,7.217,0,0,1-2.517-1.745,7.978,7.978,0,0,1-1.637-2.718,10.057,10.057,0,0,1-.587-3.505,9.7,9.7,0,0,1,.6-3.49,7.911,7.911,0,0,1,1.668-2.687,7.5,7.5,0,0,1,2.533-1.73,8.152,8.152,0,0,1,3.2-.617,8.234,8.234,0,0,1,3.227.617,7.338,7.338,0,0,1,2.517,1.73,7.857,7.857,0,0,1,1.637,2.687,9.923,9.923,0,0,1,.587,3.49" transform="translate(422.774 551.291)" fill="#6196d4"/>
    <path id="Path_12" data-name="Path 12" d="M0-1.869A25.721,25.721,0,0,1,3.026-2.5,24.914,24.914,0,0,1,6.918-2.8a9.484,9.484,0,0,1,3.443.54A5.179,5.179,0,0,1,12.538-.726a5.965,5.965,0,0,1,1.143,2.347,12.494,12.494,0,0,1,.34,3.026v9.172h-4.6V5.2a6.206,6.206,0,0,0-.587-3.15A2.393,2.393,0,0,0,6.64,1.127q-.494,0-1.05.046T4.6,1.282V13.819H0Z" transform="translate(408.284 528.433)" fill="#6196d4"/>
    <path id="Path_13" data-name="Path 13" d="M-14.2,0a10.1,10.1,0,0,1,2.378.263,11.551,11.551,0,0,1,1.667.51l-.9,3.675A6.038,6.038,0,0,0-12.4,4.03a7.194,7.194,0,0,0-1.343-.139,3.749,3.749,0,0,0-1.405.232,2.171,2.171,0,0,0-.9.633,2.452,2.452,0,0,0-.463.957,4.965,4.965,0,0,0-.139,1.2v.8h5.682V11.55h-5.682V23.964h-4.6V6.856a6.926,6.926,0,0,1,1.776-5A6.963,6.963,0,0,1-14.2,0" transform="translate(447.716 518.288)" fill="#6196d4"/>
    <path id="Path_14" data-name="Path 14" d="M-14.7-27.158q.679,0,1.3-.031a8.882,8.882,0,0,0,.988-.092v-3.49q-.278-.061-.834-.124a9.386,9.386,0,0,0-1.019-.062,9.183,9.183,0,0,0-1.22.077,3.2,3.2,0,0,0-1,.293,1.721,1.721,0,0,0-.679.587,1.634,1.634,0,0,0-.247.926,1.577,1.577,0,0,0,.726,1.5,4.006,4.006,0,0,0,1.992.417m-.371-13.464a10.664,10.664,0,0,1,3.4.463A5.283,5.283,0,0,1-9.5-38.831a4.893,4.893,0,0,1,1.158,2.1A10.366,10.366,0,0,1-8-33.982v9.573q-.988.217-2.748.51a26.454,26.454,0,0,1-4.262.293,13.511,13.511,0,0,1-2.856-.278,6.2,6.2,0,0,1-2.208-.911,4.163,4.163,0,0,1-1.42-1.652,5.7,5.7,0,0,1-.494-2.5,4.739,4.739,0,0,1,.571-2.409,4.4,4.4,0,0,1,1.529-1.575,6.916,6.916,0,0,1,2.193-.849,12.316,12.316,0,0,1,2.563-.263,14.674,14.674,0,0,1,1.591.077,7.133,7.133,0,0,1,1.127.2V-34.2a2.547,2.547,0,0,0-.71-1.884,3.441,3.441,0,0,0-2.471-.71,15.8,15.8,0,0,0-2.316.17,10,10,0,0,0-1.977.479l-.587-3.706c.267-.082.6-.17,1-.263s.839-.175,1.313-.247.973-.134,1.5-.185,1.055-.077,1.59-.077" transform="translate(460.165 566.198)" fill="#6196d4"/>
    <path id="Path_15" data-name="Path 15" d="M813.658-634.084h-4.6v-16.244h4.6Zm.432-20.938a2.526,2.526,0,0,1-.818,1.992,2.815,2.815,0,0,1-1.93.726,2.815,2.815,0,0,1-1.93-.726,2.525,2.525,0,0,1-.818-1.992,2.526,2.526,0,0,1,.818-1.992,2.816,2.816,0,0,1,1.93-.726,2.816,2.816,0,0,1,1.93.726,2.527,2.527,0,0,1,.818,1.992" transform="translate(-352.721 1176.337)" fill="#6196d4"/>
    <path id="Path_16" data-name="Path 16" d="M-19.746-8.907q-.618-.154-1.451-.324a8.986,8.986,0,0,0-1.791-.17,8.388,8.388,0,0,0-1.035.077,6.127,6.127,0,0,0-.911.17V3.261h-4.6V-12.119a27.756,27.756,0,0,1,2.918-.818,16.826,16.826,0,0,1,3.752-.386c.247,0,.545.015.9.046s.7.073,1.05.124.7.113,1.05.185a5,5,0,0,1,.9.263Z" transform="translate(494.795 538.992)" fill="#6196d4"/>
    <path id="Path_17" data-name="Path 17" d="M-21.8-13.953A4.776,4.776,0,0,0-22-15.1a2.874,2.874,0,0,0-.525-.988,2.8,2.8,0,0,0-.9-.71,2.918,2.918,0,0,0-1.343-.278,3.09,3.09,0,0,0-1.328.263,2.745,2.745,0,0,0-.926.695,3.115,3.115,0,0,0-.571,1,6.584,6.584,0,0,0-.293,1.158Zm-10.809,1.76a9.931,9.931,0,0,1,.664-3.783,8.1,8.1,0,0,1,1.745-2.7,7.258,7.258,0,0,1,2.486-1.637,7.784,7.784,0,0,1,2.888-.556,7.177,7.177,0,0,1,5.466,2.115q2.008,2.116,2.007,6.223,0,.4-.03.88t-.062.85H-27.885a3.056,3.056,0,0,0,1.328,2.254,5.336,5.336,0,0,0,3.15.834,13.3,13.3,0,0,0,2.486-.232,9.358,9.358,0,0,0,1.992-.571l.618,3.737a6.343,6.343,0,0,1-.988.371,12.886,12.886,0,0,1-1.374.324q-.757.139-1.621.232a16.171,16.171,0,0,1-1.729.093,10.234,10.234,0,0,1-3.814-.649,7.429,7.429,0,0,1-2.686-1.776A7.047,7.047,0,0,1-32.1-8.857a10.591,10.591,0,0,1-.509-3.335" transform="translate(509.821 546.446)" fill="#6196d4"/>
    <path id="Path_18" data-name="Path 18" d="M547.343-569.317h2.047v9.093h-2.047Z" transform="translate(-178.063 1117.222)" fill="#9e9e9e"/>
    <path id="Path_19" data-name="Path 19" d="M-5.4,0q.237.433.546,1.07t.645,1.378q.336.742.665,1.516l.618,1.457.618-1.457q.329-.774.664-1.516T-1,1.07Q-.689.433-.452,0H1.411q.131.905.243,2.027t.2,2.336q.085,1.214.157,2.434t.125,2.3H.138Q.1,7.768.033,6.207t-.2-3.149Q-.4,3.609-.69,4.278t-.572,1.338q-.283.669-.546,1.279t-.447,1.043H-3.687q-.184-.433-.447-1.043t-.546-1.279q-.283-.669-.572-1.338t-.527-1.22q-.131,1.587-.2,3.149t-.1,2.887H-8.076q.052-1.076.125-2.3t.157-2.434q.086-1.214.2-2.336T-7.354,0Z" transform="translate(381.24 547.905)" fill="#9e9e9e"/>
    <path id="Path_20" data-name="Path 20" d="M-5.4,0q.237.433.546,1.07t.645,1.378q.336.742.665,1.516l.618,1.457.618-1.457q.329-.774.664-1.516T-1,1.07Q-.689.433-.452,0H1.411q.131.905.243,2.027t.2,2.336q.085,1.214.157,2.434t.125,2.3H.138Q.1,7.768.033,6.207t-.2-3.149Q-.4,3.609-.69,4.278t-.572,1.338q-.283.669-.546,1.279t-.447,1.043H-3.687q-.184-.433-.447-1.043t-.546-1.279q-.283-.669-.572-1.338t-.527-1.22q-.131,1.587-.2,3.149t-.105,2.887H-8.076q.052-1.076.125-2.3t.157-2.434q.085-1.214.2-2.336T-7.354,0Z" transform="translate(393.01 547.905)" fill="#9e9e9e"/>
    <path id="Path_21" data-name="Path 21" d="M0-18.342v-9.093H6.141v1.719H2.047v1.785H5.682v1.679H2.047v2.192h4.4v1.719Z" transform="translate(396.967 575.34)" fill="#9e9e9e"/>
    <path id="Path_22" data-name="Path 22" d="M-5.611-3.52q-.223,0-.4.013l-.335.026v2.467h.577A3.485,3.485,0,0,0-4.115-1.3a1.043,1.043,0,0,0,.5-.984,1,1,0,0,0-.505-.951A3.125,3.125,0,0,0-5.611-3.52m-.118-1.745a5.634,5.634,0,0,1,3.136.728A2.53,2.53,0,0,1-1.5-2.273a2.558,2.558,0,0,1-.44,1.555A2.891,2.891,0,0,1-3.21.22q.275.342.577.781t.6.918q.3.479.571,1t.512,1.017H-3.241q-.25-.446-.507-.906t-.527-.892q-.27-.433-.534-.82t-.527-.7H-6.346v3.32H-8.393V-5.029a11.635,11.635,0,0,1,1.384-.184q.715-.052,1.279-.052" transform="translate(413.312 553.065)" fill="#9e9e9e"/>
    <path id="Path_23" data-name="Path 23" d="M-6.141-15.615a2.942,2.942,0,0,0,.715-.072,1.312,1.312,0,0,0,.452-.2.658.658,0,0,0,.236-.295,1.053,1.053,0,0,0,.066-.381.88.88,0,0,0-.42-.741,6,6,0,0,0-1.443-.636q-.446-.158-.893-.361a3.277,3.277,0,0,1-.8-.512,2.441,2.441,0,0,1-.577-.748,2.342,2.342,0,0,1-.223-1.07,2.652,2.652,0,0,1,.236-1.135,2.421,2.421,0,0,1,.669-.859,3.059,3.059,0,0,1,1.05-.545,4.718,4.718,0,0,1,1.391-.19,5.678,5.678,0,0,1,1.588.2,5.7,5.7,0,0,1,1.1.433l-.59,1.614a5.615,5.615,0,0,0-.847-.348,3.67,3.67,0,0,0-1.122-.151,2.059,2.059,0,0,0-1.056.2.686.686,0,0,0-.321.623.718.718,0,0,0,.118.42,1.148,1.148,0,0,0,.335.308,2.9,2.9,0,0,0,.5.25q.282.111.623.229.708.263,1.234.518a3.3,3.3,0,0,1,.872.6,2.168,2.168,0,0,1,.518.8,3.218,3.218,0,0,1,.171,1.115,2.368,2.368,0,0,1-.893,1.975,4.3,4.3,0,0,1-2.69.7,7.458,7.458,0,0,1-1.089-.072,7.1,7.1,0,0,1-.86-.177,4.9,4.9,0,0,1-.643-.223,4.793,4.793,0,0,1-.453-.223l.577-1.627a5.154,5.154,0,0,0,1,.4,5.214,5.214,0,0,0,1.463.177" transform="translate(422.292 571.052)" fill="#9e9e9e"/>
    <path id="Path_24" data-name="Path 24" d="M704.311-569.317h2.047v9.093h-2.047Z" transform="translate(-283.003 1117.222)" fill="#9e9e9e"/>
    <path id="Path_25" data-name="Path 25" d="M-7.335-18.342q-.543-1.146-1.071-2.378t-1-2.438q-.475-1.206-.874-2.309t-.688-1.968h2.257q.256.79.568,1.7t.637,1.815l.621,1.733q.3.829.569,1.431.257-.6.56-1.427t.628-1.733q.324-.9.636-1.815t.569-1.7h2.179q-.305.87-.7,1.97t-.87,2.308q-.473,1.207-1,2.441t-1.066,2.374Z" transform="translate(435.507 575.34)" fill="#9e9e9e"/>
    <path id="Path_26" data-name="Path 26" d="M0-18.342v-9.093H6.141v1.719H2.047v1.785H5.682v1.679H2.047v2.192h4.4v1.719Z" transform="translate(434.928 575.34)" fill="#9e9e9e"/>
    <path id="Path_27" data-name="Path 27" d="M-4.129-15.192q.144.013.334.02t.453.007a3.017,3.017,0,0,0,2.276-.774,2.964,2.964,0,0,0,.741-2.139,3,3,0,0,0-.708-2.165,3,3,0,0,0-2.244-.735q-.21,0-.433.007a4.14,4.14,0,0,0-.42.033Zm5.918-2.887a5.319,5.319,0,0,1-.367,2.06A3.821,3.821,0,0,1,.378-14.562a4.453,4.453,0,0,1-1.647.866,7.643,7.643,0,0,1-2.178.289q-.551,0-1.286-.046a10.5,10.5,0,0,1-1.443-.19V-22.5A12.031,12.031,0,0,1-4.7-22.678q.767-.046,1.319-.046a7.964,7.964,0,0,1,2.119.263,4.338,4.338,0,0,1,1.634.827,3.681,3.681,0,0,1,1.05,1.443,5.474,5.474,0,0,1,.367,2.112" transform="translate(452.205 570.524)" fill="#9e9e9e"/>
    <path id="Path_28" data-name="Path 28" d="M0-18.342v-9.093H6.141v1.719H2.047v1.785H5.681v1.679H2.047v2.192h4.4v1.719Z" transform="translate(455.7 575.34)" fill="#9e9e9e"/>
    <path id="Path_29" data-name="Path 29" d="M-6.141-15.615a2.94,2.94,0,0,0,.715-.072,1.314,1.314,0,0,0,.453-.2.657.657,0,0,0,.236-.295,1.053,1.053,0,0,0,.066-.381.879.879,0,0,0-.42-.741,6,6,0,0,0-1.444-.636q-.446-.158-.892-.361a3.273,3.273,0,0,1-.8-.512,2.437,2.437,0,0,1-.578-.748,2.337,2.337,0,0,1-.223-1.07,2.643,2.643,0,0,1,.236-1.135,2.411,2.411,0,0,1,.67-.859,3.06,3.06,0,0,1,1.05-.545,4.715,4.715,0,0,1,1.391-.19,5.676,5.676,0,0,1,1.588.2,5.679,5.679,0,0,1,1.1.433l-.59,1.614a5.625,5.625,0,0,0-.846-.348,3.674,3.674,0,0,0-1.122-.151,2.057,2.057,0,0,0-1.056.2.686.686,0,0,0-.322.623.721.721,0,0,0,.118.42,1.152,1.152,0,0,0,.335.308,2.925,2.925,0,0,0,.5.25q.282.111.623.229.709.263,1.234.518a3.3,3.3,0,0,1,.873.6,2.172,2.172,0,0,1,.518.8,3.226,3.226,0,0,1,.17,1.115,2.368,2.368,0,0,1-.892,1.975,4.306,4.306,0,0,1-2.69.7,7.465,7.465,0,0,1-1.089-.072,7.093,7.093,0,0,1-.859-.177,4.91,4.91,0,0,1-.643-.223,4.743,4.743,0,0,1-.452-.223l.577-1.627a5.166,5.166,0,0,0,1,.4,5.212,5.212,0,0,0,1.463.177" transform="translate(472.272 571.052)" fill="#9e9e9e"/>
    <path id="Path_30" data-name="Path 30" d="M855.1-569.317h2.047v9.093H855.1Z" transform="translate(-383.816 1117.222)" fill="#9e9e9e"/>
    <path id="Path_31" data-name="Path 31" d="M-9.739-3.6a2.494,2.494,0,0,0-2.067.794,3.378,3.378,0,0,0-.637,2.172A4.372,4.372,0,0,0-12.285.58a2.673,2.673,0,0,0,.473.938,2.129,2.129,0,0,0,.788.61,2.621,2.621,0,0,0,1.1.216q.342,0,.584-.013a2.751,2.751,0,0,0,.426-.052V-.883h2.047v4.5a7.707,7.707,0,0,1-1.181.309,10.4,10.4,0,0,1-2.008.164,5.219,5.219,0,0,1-1.857-.315,3.879,3.879,0,0,1-1.424-.918,4.1,4.1,0,0,1-.912-1.483,5.819,5.819,0,0,1-.321-2.008,5.371,5.371,0,0,1,.354-2.021,4.358,4.358,0,0,1,.971-1.49,4.1,4.1,0,0,1,1.45-.925,4.99,4.99,0,0,1,1.778-.315A7.215,7.215,0,0,1-8.854-5.3a7.444,7.444,0,0,1,.892.2,4.2,4.2,0,0,1,.617.23c.162.079.278.14.348.184l-.591,1.64a5.369,5.369,0,0,0-.964-.387A4.1,4.1,0,0,0-9.739-3.6" transform="translate(489.609 553.079)" fill="#9e9e9e"/>
    <path id="Path_32" data-name="Path 32" d="M-12.307-18.342q-.879-1.562-1.9-3.084A31.41,31.41,0,0,0-16.387-24.3v5.957h-2.021v-9.093h1.666q.433.433.958,1.063t1.07,1.345q.544.715,1.083,1.483t1.01,1.476v-5.367h2.034v9.093Z" transform="translate(503.054 575.34)" fill="#9e9e9e"/>
    <path id="Path_33" data-name="Path 33" d="M-9.937-1.7a2.886,2.886,0,0,1,0,4.081,2.886,2.886,0,0,1-4.081,0,2.886,2.886,0,0,1,0-4.081,2.886,2.886,0,0,1,4.081,0" transform="translate(295.863 537.399)" fill="#afd753"/>
    <path id="Path_34" data-name="Path 34" d="M-9.937-1.7a2.886,2.886,0,0,1,0,4.081,2.886,2.886,0,0,1-4.081,0,2.886,2.886,0,0,1,0-4.081,2.886,2.886,0,0,1,4.081,0" transform="translate(302.859 544.395)" fill="#afd753"/>
    <path id="Path_35" data-name="Path 35" d="M-9.937-1.7a2.886,2.886,0,0,1,0,4.081,2.886,2.886,0,0,1-4.081,0,2.886,2.886,0,0,1,0-4.081,2.886,2.886,0,0,1,4.081,0" transform="translate(309.855 551.391)" fill="#afd753"/>
    <path id="Path_36" data-name="Path 36" d="M-9.937-1.7a2.886,2.886,0,0,1,0,4.081,2.886,2.886,0,0,1-4.081,0,2.886,2.886,0,0,1,0-4.081,2.886,2.886,0,0,1,4.081,0" transform="translate(316.851 558.387)" fill="#afd753"/>
    <path id="Path_37" data-name="Path 37" d="M-9.937-1.7a2.886,2.886,0,0,1,0,4.081,2.886,2.886,0,0,1-4.081,0,2.886,2.886,0,0,1,0-4.081,2.886,2.886,0,0,1,4.081,0" transform="translate(323.847 565.383)" fill="#afd753"/>
    <path id="Path_38" data-name="Path 38" d="M-9.937-1.7a2.886,2.886,0,0,1,0,4.081,2.886,2.886,0,0,1-4.081,0,2.886,2.886,0,0,1,0-4.081,2.886,2.886,0,0,1,4.081,0" transform="translate(302.859 530.403)" fill="#afd753"/>
    <path id="Path_39" data-name="Path 39" d="M-5.819-2.91a1.434,1.434,0,0,1-.423,1.02,1.434,1.434,0,0,1-1.02.423,1.434,1.434,0,0,1-1.02-.423,1.444,1.444,0,0,1,0-2.04,1.434,1.434,0,0,1,1.02-.423,1.434,1.434,0,0,1,1.02.423,1.434,1.434,0,0,1,.423,1.02" transform="translate(305.14 540.645)" fill="#afd753"/>
    <path id="Path_40" data-name="Path 40" d="M-9.937-1.7a2.886,2.886,0,0,1,0,4.081,2.886,2.886,0,0,1-4.081,0,2.886,2.886,0,0,1,0-4.081,2.886,2.886,0,0,1,4.081,0" transform="translate(316.851 544.395)" fill="#afd753"/>
    <path id="Path_41" data-name="Path 41" d="M-4.967-4.968a1.434,1.434,0,0,1-1.02.423,1.435,1.435,0,0,1-1.021-.423,1.445,1.445,0,0,1,0-2.041,1.436,1.436,0,0,1,1.021-.422,1.435,1.435,0,0,1,1.02.422,1.444,1.444,0,0,1,0,2.041" transform="translate(317.857 557.715)" fill="#afd753"/>
    <path id="Path_42" data-name="Path 42" d="M-9.937-1.7a2.886,2.886,0,0,1,0,4.081,2.886,2.886,0,0,1-4.081,0,2.886,2.886,0,0,1,0-4.081,2.886,2.886,0,0,1,4.081,0" transform="translate(330.843 558.387)" fill="#afd753"/>
    <path id="Path_43" data-name="Path 43" d="M-9.937-1.7a2.886,2.886,0,0,1,0,4.081,2.886,2.886,0,0,1-4.081,0,2.886,2.886,0,0,1,0-4.081,2.886,2.886,0,0,1,4.081,0" transform="translate(309.855 523.407)" fill="#afd753"/>
    <path id="Path_44" data-name="Path 44" d="M-5.82-2.91a1.434,1.434,0,0,1-.423,1.02,1.434,1.434,0,0,1-1.02.423,1.434,1.434,0,0,1-1.02-.423,1.434,1.434,0,0,1-.423-1.02,1.434,1.434,0,0,1,.423-1.02,1.434,1.434,0,0,1,1.02-.423,1.434,1.434,0,0,1,1.02.423A1.434,1.434,0,0,1-5.82-2.91" transform="translate(312.137 533.649)" fill="#afd753"/>
    <path id="Path_45" data-name="Path 45" d="M-9.937-1.7a2.886,2.886,0,0,1,0,4.081,2.886,2.886,0,0,1-4.081,0,2.886,2.886,0,0,1,0-4.081,2.886,2.886,0,0,1,4.081,0" transform="translate(323.847 537.399)" fill="#afd753"/>
    <path id="Path_46" data-name="Path 46" d="M-5.819-2.91a1.434,1.434,0,0,1-.423,1.02,1.434,1.434,0,0,1-1.02.423,1.434,1.434,0,0,1-1.02-.423,1.444,1.444,0,0,1,0-2.04,1.434,1.434,0,0,1,1.02-.423,1.434,1.434,0,0,1,1.02.423,1.434,1.434,0,0,1,.423,1.02" transform="translate(326.128 547.641)" fill="#afd753"/>
    <path id="Path_47" data-name="Path 47" d="M-9.937-1.7a2.886,2.886,0,0,1,0,4.081,2.886,2.886,0,0,1-4.081,0,2.886,2.886,0,0,1,0-4.081,2.886,2.886,0,0,1,4.081,0" transform="translate(337.839 551.391)" fill="#afd753"/>
    <path id="Path_48" data-name="Path 48" d="M-9.937-1.7a2.886,2.886,0,0,1,0,4.081,2.886,2.886,0,0,1-4.081,0,2.886,2.886,0,0,1,0-4.081,2.886,2.886,0,0,1,4.081,0" transform="translate(316.851 516.411)" fill="#afd753"/>
    <path id="Path_49" data-name="Path 49" d="M-4.967-4.968a1.434,1.434,0,0,1-1.02.423,1.435,1.435,0,0,1-1.021-.423,1.445,1.445,0,0,1,0-2.041,1.435,1.435,0,0,1,1.021-.422,1.434,1.434,0,0,1,1.02.422,1.444,1.444,0,0,1,0,2.041" transform="translate(317.857 529.731)" fill="#afd753"/>
    <path id="Path_50" data-name="Path 50" d="M-5.82-2.91a1.434,1.434,0,0,1-.423,1.02,1.434,1.434,0,0,1-1.02.423,1.434,1.434,0,0,1-1.02-.423,1.434,1.434,0,0,1-.423-1.02,1.434,1.434,0,0,1,.423-1.02,1.434,1.434,0,0,1,1.02-.423,1.434,1.434,0,0,1,1.02.423A1.434,1.434,0,0,1-5.82-2.91" transform="translate(326.129 533.649)" fill="#afd753"/>
    <path id="Path_51" data-name="Path 51" d="M-4.968-4.968a1.434,1.434,0,0,1-1.02.423,1.435,1.435,0,0,1-1.021-.423,1.434,1.434,0,0,1-.422-1.02,1.435,1.435,0,0,1,.422-1.021,1.436,1.436,0,0,1,1.021-.422,1.435,1.435,0,0,1,1.02.422,1.444,1.444,0,0,1,0,2.041" transform="translate(331.85 543.723)" fill="#afd753"/>
    <path id="Path_52" data-name="Path 52" d="M-9.937-1.7a2.886,2.886,0,0,1,0,4.081,2.886,2.886,0,0,1-4.081,0,2.886,2.886,0,0,1,0-4.081,2.886,2.886,0,0,1,4.081,0" transform="translate(344.835 544.395)" fill="#afd753"/>
    <path id="Path_53" data-name="Path 53" d="M-9.937-1.7a2.886,2.886,0,0,1,0,4.081,2.886,2.886,0,0,1-4.081,0,2.886,2.886,0,0,1,0-4.081,2.886,2.886,0,0,1,4.081,0" transform="translate(323.847 509.415)" fill="#afd753"/>
    <path id="Path_54" data-name="Path 54" d="M-5.819-2.91a1.438,1.438,0,0,1-.423,1.02,1.434,1.434,0,0,1-1.02.423,1.434,1.434,0,0,1-1.02-.423,1.444,1.444,0,0,1,0-2.04,1.425,1.425,0,0,1,1.02-.423,1.426,1.426,0,0,1,1.02.423,1.434,1.434,0,0,1,.423,1.02" transform="translate(326.128 519.657)" fill="#afd753"/>
    <path id="Path_55" data-name="Path 55" d="M-4.968-4.968a1.434,1.434,0,0,1-1.02.423,1.435,1.435,0,0,1-1.021-.423,1.434,1.434,0,0,1-.422-1.02,1.435,1.435,0,0,1,.422-1.021,1.435,1.435,0,0,1,1.021-.422,1.434,1.434,0,0,1,1.02.422,1.444,1.444,0,0,1,0,2.041" transform="translate(331.85 529.731)" fill="#afd753"/>
    <path id="Path_56" data-name="Path 56" d="M-4.968-4.968a1.434,1.434,0,0,1-1.02.423,1.439,1.439,0,0,1-1.021-.423,1.434,1.434,0,0,1-.422-1.02,1.435,1.435,0,0,1,.422-1.021,1.439,1.439,0,0,1,1.021-.422,1.434,1.434,0,0,1,1.02.422,1.444,1.444,0,0,1,0,2.041" transform="translate(338.846 536.727)" fill="#afd753"/>
    <path id="Path_57" data-name="Path 57" d="M-9.937-1.7a2.886,2.886,0,0,1,0,4.081,2.886,2.886,0,0,1-4.081,0,2.886,2.886,0,0,1,0-4.081,2.886,2.886,0,0,1,4.081,0" transform="translate(351.831 537.399)" fill="#afd753"/>
  </g>
</svg>
